<svg width="648" height="321" viewBox="0 0 648 321" fill="none" xmlns="http://www.w3.org/2000/svg">
<path d="M646.939 12.6997C648.727 6.32235 643.934 0 637.311 0H10C4.47717 0 0 4.47715 0 10V311C0 316.523 4.47715 321 10 321H552.918C557.401 321 561.337 318.016 562.547 313.7L646.939 12.6997Z" fill="white"/>
<path d="M637.311 0.5H10C4.7533 0.5 0.5 4.7533 0.5 10V311C0.5 316.247 4.7533 320.5 10 320.5H552.918C557.177 320.5 560.916 317.665 562.065 313.565L646.458 12.5647C648.157 6.50624 643.603 0.5 637.311 0.5Z" stroke="#006BF6" stroke-opacity="0.2"/>
</svg>
